<?xml version="1.0" encoding="utf-8"?>
<!-- Generator: Adobe Illustrator 21.0.0, SVG Export Plug-In . SVG Version: 6.00 Build 0)  -->
<svg version="1.1" id="Capa_1" xmlns="http://www.w3.org/2000/svg" xmlns:xlink="http://www.w3.org/1999/xlink" x="0px" y="0px"
	 viewBox="0 0 25 25" style="enable-background:new 0 0 25 25;" xml:space="preserve">
<style type="text/css">
	.st0{fill:#FFFFFF ;}
	.st1{fill:#3366CC;}
</style>
<path class="st0" d="M22,25H3c-1.6,0-3-1.4-3-3V3c0-1.6,1.4-3,3-3h19c1.6,0,3,1.4,3,3v19C25,23.6,23.6,25,22,25z"/>
<g>
	<path class="st1" d="M5,9v3h5.2V14H5v4.1H2.4V6.9h8.5V9H5z"/>
	<path class="st1" d="M19.8,18.1L17.6,15h-0.1h-2.3v3.1h-2.6V6.9h4.9c3,0,4.9,1.6,4.9,4.1c0,1.7-0.8,2.9-2.3,3.5l2.5,3.6H19.8z
		 M17.4,9h-2.1v3.9h2.1c1.6,0,2.4-0.7,2.4-2C19.7,9.7,18.9,9,17.4,9z"/>
</g>
</svg>
