<svg xmlns="http://www.w3.org/2000/svg" width="82.457" height="84.641" viewBox="0 0 82.457 84.641">
  <g id="Grupo_1475" data-name="Grupo 1475" transform="translate(-123.72 -652.188)">
    <g id="Grupo_1474" data-name="Grupo 1474">
      <path id="Trazado_1930" data-name="Trazado 1930" d="M206.174,695.621c-1.211-20.693-18.381-37.155-39.636-37.941v-4a1.493,1.493,0,1,0-2.987,0v3.993c-21.346.693-38.614,17.19-39.829,37.946a1.494,1.494,0,0,0,2.77.859,11.914,11.914,0,0,1,20.917,1.159,1.494,1.494,0,0,0,2.721,0,16.177,16.177,0,0,1,13.422-9.348v38.084a7.468,7.468,0,1,1-14.936,0,1.494,1.494,0,0,0-2.988,0,10.456,10.456,0,1,0,20.912,0V688.31a16.177,16.177,0,0,1,13.228,9.327,1.492,1.492,0,0,0,2.719,0A11.915,11.915,0,0,1,203.4,696.48a1.493,1.493,0,0,0,2.769-.859Zm-56.421-18.852a78.271,78.271,0,0,0-2.361,15.622,14.948,14.948,0,0,0-20.1-1.28,37.835,37.835,0,0,1,30.018-29.737,20.272,20.272,0,0,0-1.712,2.056A40.7,40.7,0,0,0,149.753,676.769Zm15.194,8.47a19.309,19.309,0,0,0-14.526,6.52c.536-8.481,2.281-16.018,4.747-21.531a23.062,23.062,0,0,1,4.712-7.211,9.544,9.544,0,0,1,2.545-1.8,5.729,5.729,0,0,1,5.044,0,12.031,12.031,0,0,1,4.412,3.973,37.841,37.841,0,0,1,5.372,12.345,74.574,74.574,0,0,1,2.213,14.22A19.311,19.311,0,0,0,164.947,685.239Zm28.306,2.588a14.855,14.855,0,0,0-10.756,4.566c-.493-9.108-2.308-17.249-5.044-23.383a26.889,26.889,0,0,0-4.875-7.637A37.832,37.832,0,0,1,202.6,691.11,14.878,14.878,0,0,0,193.253,687.827Z" fill="#999"/>
    </g>
  </g>
</svg>
