<svg xmlns="http://www.w3.org/2000/svg" width="97.747" height="99.233" viewBox="0 0 97.747 99.233">
  <g id="Grupo_1521" data-name="Grupo 1521" transform="translate(-312.032 -649.291)">
    <path id="Trazado_1931" data-name="Trazado 1931" d="M358.659,676.574l4.241-4.2a13.55,13.55,0,0,0,3.741-9.494A1.643,1.643,0,0,0,365,661.237h0a13.446,13.446,0,0,0-9.569,3.964l-4.036,4.036L335.9,664.59a1.64,1.64,0,0,0-1.633.412l-3.285,3.285a1.643,1.643,0,0,0,.5,2.663l12.6,5.6-2.579,2.579-5.668-1.418a1.643,1.643,0,0,0-1.561.432l-3.285,3.285A1.641,1.641,0,0,0,331.3,684l7.862,4.718,4.717,7.861a1.64,1.64,0,0,0,1.208.785,1.476,1.476,0,0,0,.2.012,1.654,1.654,0,0,0,1.163-.48l3.285-3.285a1.643,1.643,0,0,0,.432-1.56l-1.416-5.662,2.566-2.54,5.4,12.535a1.645,1.645,0,0,0,1.15.953,1.7,1.7,0,0,0,.36.039,1.638,1.638,0,0,0,1.085-.41l3.483-3.072a1.646,1.646,0,0,0,.488-1.7ZM335,668.918l.9-.9,12.855,3.857-2.185,2.186Zm10.337,17.354,1.417,5.669-1.14,1.14-3.845-6.41a1.649,1.649,0,0,0-.563-.563l-6.41-3.845,1.14-1.14,5.669,1.417a1.638,1.638,0,0,0,1.56-.432l14.587-14.586a10.162,10.162,0,0,1,5.476-2.85,10.122,10.122,0,0,1-2.669,5.4l-14.784,14.636A1.642,1.642,0,0,0,345.333,686.272ZM358.84,693l-5.017-11.638,2.186-2.166,3.828,12.923Z" fill="#999" stroke="#e6e6e6" stroke-miterlimit="10" stroke-width="0.5"/>
    <g id="Grupo_1477" data-name="Grupo 1477">
      <g id="Grupo_1476" data-name="Grupo 1476">
        <path id="Trazado_1932" data-name="Trazado 1932" d="M399.3,706.453a1.643,1.643,0,0,0-1.449-.867H392.3l-4.475-8.947a1.644,1.644,0,0,0-1.47-.909H369.924a1.642,1.642,0,0,0-1.643,1.643v13.141a1.641,1.641,0,0,0,1.643,1.642h4.928v18.069a1.641,1.641,0,0,0,1.642,1.643h8.213a1.644,1.644,0,0,0,1.163-.483l6.571-6.571a1.637,1.637,0,0,0,.481-1.161V717.58l6.294-9.441A1.642,1.642,0,0,0,399.3,706.453Zm-9.388,9.72a1.65,1.65,0,0,0-.276.911v5.891l-5.608,5.607h-5.892V710.514a1.641,1.641,0,0,0-1.642-1.643h-4.928v-9.855h13.768l4.475,8.947a1.643,1.643,0,0,0,1.47.908h3.5Z" fill="#999" stroke="#e6e6e6" stroke-miterlimit="10" stroke-width="0.5"/>
      </g>
    </g>
    <g id="Grupo_1479" data-name="Grupo 1479">
      <g id="Grupo_1478" data-name="Grupo 1478">
        <path id="Trazado_1933" data-name="Trazado 1933" d="M360.068,708.871h-9.175l-4.447-4.446a1.638,1.638,0,0,0-1.161-.482h-8.213a1.642,1.642,0,0,0-1.642,1.643v11.5a1.641,1.641,0,0,0,1.642,1.643h6.571v16.426a1.643,1.643,0,0,0,2.628,1.314l6.57-4.928a1.642,1.642,0,0,0,.657-1.314v-4.139l7.6-6.076a1.642,1.642,0,0,0,.616-1.283v-8.213A1.642,1.642,0,0,0,360.068,708.871Zm-1.642,9.067-7.6,6.076a1.647,1.647,0,0,0-.616,1.283V729.4l-3.285,2.464V717.084a1.642,1.642,0,0,0-1.643-1.642h-6.57v-8.213h5.89l4.447,4.446a1.638,1.638,0,0,0,1.161.482h8.213v5.781Z" fill="#999" stroke="#e6e6e6" stroke-miterlimit="10" stroke-width="0.5"/>
      </g>
    </g>
    <path id="Trazado_1934" data-name="Trazado 1934" d="M407.178,683.677a48.49,48.49,0,0,0-92.552,28.97l3.136-.982a45.013,45.013,0,0,1-2.048-12.65h4.932a1.643,1.643,0,0,0,1.643-1.642v-5.89l4.446-4.447a1.646,1.646,0,0,0,.247-2.007l-4.928-8.213a1.639,1.639,0,0,0-.634-.6,45.059,45.059,0,0,1,22.1-19.777l9.244,4.622a1.64,1.64,0,0,0,1.644-.1l4.691-3.128,6.3-1.573a1.645,1.645,0,0,0,1.246-1.594v-1.357a45.449,45.449,0,0,1,27.779,14.5h-4.785a1.641,1.641,0,0,0-1.161.481l-6.089,6.089h-9.176a1.642,1.642,0,0,0-1.642,1.643v11.5a1.642,1.642,0,0,0,1.642,1.643h6.571a1.644,1.644,0,0,0,1.366-.731l2.8-4.2h8.024l6.1,10.67a1.643,1.643,0,0,0,1.426.828h6.566a45.215,45.215,0,0,1-83.08,27.031l-2.756,1.787A48.294,48.294,0,0,0,340,741.857c-9.923,4.012-17.644,4.178-21.477.348-7.448-7.448.641-29.086,18.813-50.335l-2.5-2.135c-19.931,23.3-27.6,45.837-18.64,54.792,2.5,2.5,6.035,3.747,10.417,3.747,4.887,0,10.838-1.567,17.573-4.654A48.714,48.714,0,0,0,361,746.636a48.472,48.472,0,0,0,46.18-62.959Zm-83.672,1.943-4.021,4.021A1.637,1.637,0,0,0,319,690.8v4.928h-3.237a45.283,45.283,0,0,1,4.024-16.3Zm39.849-32.236-5.327,1.332a1.657,1.657,0,0,0-.512.227l-4.135,2.756-5.584-2.792a45.172,45.172,0,0,1,15.558-1.9Zm37.089,39.061-6.1-10.67a1.64,1.64,0,0,0-1.425-.828h-9.856a1.645,1.645,0,0,0-1.367.731l-2.8,4.2h-4.049v-8.213h8.213a1.636,1.636,0,0,0,1.161-.482l6.089-6.089h6.813a45.372,45.372,0,0,1,8.615,21.354Z" fill="#999" stroke="#e6e6e6" stroke-miterlimit="10" stroke-width="0.5"/>
  </g>
</svg>
