<svg xmlns="http://www.w3.org/2000/svg" width="78.283" height="68.63" viewBox="0 0 78.283 68.63">
  <g id="Grupo_1522" data-name="Grupo 1522" transform="translate(-1106.217 -661.334)">
    <g id="Grupo_1493" data-name="Grupo 1493">
      <g id="Grupo_1492" data-name="Grupo 1492">
        <path id="Trazado_1940" data-name="Trazado 1940" d="M1181.585,705.313a2.416,2.416,0,0,0-2.415,2.415v16.906h-67.623V695.652h26.566a2.415,2.415,0,0,0,0-4.83h-26.566v-9.66h26.566a2.415,2.415,0,0,0,0-4.83h-26.566a4.832,4.832,0,0,0-4.83,4.83v43.472a4.832,4.832,0,0,0,4.83,4.83h67.623a4.832,4.832,0,0,0,4.83-4.83V707.728A2.416,2.416,0,0,0,1181.585,705.313Z" fill="#999" stroke="#e6e6e6" stroke-miterlimit="10" stroke-width="1"/>
      </g>
    </g>
    <g id="Grupo_1497" data-name="Grupo 1497">
      <g id="Grupo_1496" data-name="Grupo 1496">
        <path id="Trazado_1942" data-name="Trazado 1942" d="M1182.536,669.28l-16.905-7.246a2.466,2.466,0,0,0-1.908,0l-16.906,7.246a2.419,2.419,0,0,0-1.459,2.221v9.661c0,13.288,4.913,21.055,18.118,28.662a2.428,2.428,0,0,0,2.406,0c13.206-7.588,18.118-15.355,18.118-28.662V671.5A2.416,2.416,0,0,0,1182.536,669.28Zm-3.366,11.882c0,11.153-3.69,17.292-14.491,23.764-10.8-6.486-14.49-12.626-14.49-23.764v-8.067l14.49-6.211,14.491,6.211Z" fill="#999" stroke="#e6e6e6" stroke-miterlimit="10" stroke-width="1"/>
      </g>
    </g>
  </g>
</svg>
