<svg xmlns="http://www.w3.org/2000/svg" width="58.95" height="58.962" viewBox="0 0 58.95 58.962">
  <g id="Grupo_1507" data-name="Grupo 1507" transform="translate(-451.894 -1922)">
    <path id="Trazado_1954" data-name="Trazado 1954" d="M496.456,1959.6a4.616,4.616,0,0,0-5.229-.906l-7.683,3.64a2.77,2.77,0,0,1-3.137-.544l-9.356-9.355a2.771,2.771,0,0,1-.544-3.138l3.64-7.682a4.616,4.616,0,0,0-.906-5.229l-7.935-7.935a4.6,4.6,0,0,0-6.514,0l-2.117,2.117a16.371,16.371,0,0,0,0,23.125l22.473,22.473a16.343,16.343,0,0,0,23.125,0l2.117-2.117a4.611,4.611,0,0,0,0-6.514ZM464,1929.757l7.935,7.934a2.771,2.771,0,0,1,.544,3.138l-.842,1.776-12.2-12.2.651-.651A2.761,2.761,0,0,1,464,1929.757Zm16.448,45.109-22.473-22.473a14.518,14.518,0,0,1,.163-20.682l12.662,12.662-1.961,4.139a4.615,4.615,0,0,0,.906,5.228l9.356,9.356a4.615,4.615,0,0,0,5.228.906l4.139-1.961,12.662,12.662a14.493,14.493,0,0,1-20.682.163Zm22.637-2.117-.652.651-12.2-12.2,1.776-.842a2.771,2.771,0,0,1,3.138.544l7.934,7.935a2.766,2.766,0,0,1,0,3.908Z" fill="#005695"/>
    <path id="Trazado_1955" data-name="Trazado 1955" d="M481.365,1922a2.763,2.763,0,0,0,0,5.527,23.979,23.979,0,0,1,23.952,23.952.779.779,0,0,0,.008.113,2.764,2.764,0,0,0,5.519-.231A29.48,29.48,0,0,0,481.365,1922Zm26.716,30.285a.92.92,0,0,1-.922-.948,25.781,25.781,0,0,0-25.794-25.652.922.922,0,1,1,0-1.843c14.745,0,27.346,11.416,27.636,27.568A.922.922,0,0,1,508.081,1952.285Z" fill="#005695"/>
    <path id="Trazado_1956" data-name="Trazado 1956" d="M491.5,1951.479a.78.78,0,0,0,.008.113,2.764,2.764,0,0,0,5.519-.205,15.66,15.66,0,0,0-15.661-15.569,2.764,2.764,0,1,0,0,5.528A10.145,10.145,0,0,1,491.5,1951.479Zm-11.055-12.9a.919.919,0,0,1,.921-.921,13.851,13.851,0,0,1,13.819,13.727.922.922,0,0,1-1.841.034c0-.048,0-.059,0-.1a11.989,11.989,0,0,0-11.975-11.817A.922.922,0,0,1,480.444,1938.582Z" fill="#005695"/>
  </g>
</svg>
