<svg xmlns="http://www.w3.org/2000/svg" width="87.73" height="85.978" viewBox="0 0 87.73 85.978">
  <g id="Grupo_1484" data-name="Grupo 1484" transform="translate(-515.403 -654.878)">
    <g id="Grupo_1483" data-name="Grupo 1483">
      <path id="Trazado_1936" data-name="Trazado 1936" d="M599.782,700.579l-3.593-1.151a1.5,1.5,0,0,1-.97-.983,23.218,23.218,0,0,0-3.4-6.719,24.818,24.818,0,0,0-2.27-2.677,31.64,31.64,0,0,0,.781-7.231c-.053-3.254-.7-5.161-1.987-5.834-.691-.362-2.8-1.464-14.185,3.75a4.137,4.137,0,0,0-.754.449c-.768-.206-1.553-.4-2.342-.569l-.289-.059a17.424,17.424,0,0,0,1.563-6.466,1.277,1.277,0,1,0-2.551-.114,14.852,14.852,0,0,1-9.72,13.282,37,37,0,0,0-10.277,0,14.868,14.868,0,1,1,18.428-20.64,1.277,1.277,0,0,0,2.281-1.149,17.427,17.427,0,1,0-24.817,22.609h0q-1.191.309-2.361.7a1.277,1.277,0,0,0,.809,2.422,34.276,34.276,0,0,1,21.6,0,1.277,1.277,0,0,0,.809-2.422q-1.168-.39-2.361-.7h0a17.406,17.406,0,0,0,5.3-5.182c.352.069.7.14,1.046.215q.688.148,1.367.319c-.014.055-.028.11-.04.167a15.227,15.227,0,0,0,.12,7.767,9.238,9.238,0,0,0,3.386,4.76,10.744,10.744,0,0,0,6.284,1.994,8.425,8.425,0,0,0,4.073-.942c1.2-.68,2.205-2.112,3-4.262q.552.643,1.045,1.319a20.623,20.623,0,0,1,3.024,5.98,4.06,4.06,0,0,0,2.627,2.648L599,703.012a2.26,2.26,0,0,1,1.576,2.16v5.958A2.26,2.26,0,0,1,599,713.29l-5.79,1.855a3.945,3.945,0,0,0-2.207,1.792,25.447,25.447,0,0,1-10.63,9.669,2,2,0,0,0-1.05,1.41l-1.854,9.819a.573.573,0,0,1-.564.467H570.88a.575.575,0,0,1-.564-.467l-1.027-5.426a2.006,2.006,0,0,0-2.281-1.614,53.332,53.332,0,0,1-7.954.592,50.79,50.79,0,0,1-5.851-.331,2.023,2.023,0,0,0-2.213,1.623l-.976,5.156a.573.573,0,0,1-.563.467h-6.029a.575.575,0,0,1-.565-.471l-1.785-9.274a2.007,2.007,0,0,0-1.03-1.394c-8.147-4.349-12.453-11.614-12.453-21.011a24.551,24.551,0,0,1,3.087-12.479,22.28,22.28,0,0,1,8.3-8.1,1.277,1.277,0,0,0-1.279-2.211,24.306,24.306,0,0,0-12.332,18.154h0c-.123-.011-.246-.022-.368-.035a6.359,6.359,0,0,0-.468-2.547,5.232,5.232,0,0,0-3.877-3.386,3.528,3.528,0,0,0-3.322,1.48,3.364,3.364,0,0,0-.639,3.669c.643,1.325,2.3,2.262,5.039,2.851-.075.113-.158.227-.249.341a6.265,6.265,0,0,1-4.77,2.524,1.34,1.34,0,0,0-1.307,1.334v.006a1.337,1.337,0,0,0,1.281,1.333c.092,0,.187.007.287.007,1.569,0,4.087-.579,6.506-3.612a7.275,7.275,0,0,0,.932-1.506c.241.027.473.05.694.071h0c-.043.692-.067,1.394-.067,2.108a26.308,26.308,0,0,0,3.767,14.09,25.805,25.805,0,0,0,9.81,9.052l1.736,9.016a3.129,3.129,0,0,0,3.073,2.545h6.029a3.129,3.129,0,0,0,3.072-2.545l.883-4.662a53.837,53.837,0,0,0,5.648.292,56.077,56.077,0,0,0,7.823-.545l.93,4.915a3.131,3.131,0,0,0,3.073,2.546h6.029a3.13,3.13,0,0,0,3.072-2.546l1.806-9.56a27.843,27.843,0,0,0,11.43-10.534,1.394,1.394,0,0,1,.776-.639l5.789-1.855a4.805,4.805,0,0,0,3.351-4.592v-5.959A4.807,4.807,0,0,0,599.782,700.579Zm-12.194-15.174c-.491,4.2-1.809,7.8-3.134,8.548a7.813,7.813,0,0,1-7.591-.892c-2.613-1.911-3.482-5.348-2.515-9.939h0a1.542,1.542,0,0,1,.876-1.067c6.392-2.926,10.077-3.883,11.447-3.883a1.34,1.34,0,0,1,.463.062C587.545,678.673,588.084,681.164,587.588,685.405Zm-68.6,14.176c-.132-.273.179-.752.377-1.013a1.02,1.02,0,0,1,.82-.5,1.031,1.031,0,0,1,.129.009,2.786,2.786,0,0,1,1.845,1.808,3.858,3.858,0,0,1,.267,1.2C520.659,700.724,519.286,700.2,518.988,699.581Z" fill="#999"/>
    </g>
  </g>
</svg>
