<svg xmlns="http://www.w3.org/2000/svg" width="35" height="35" viewBox="0 0 35 35">
  <g id="Grupo_1519" data-name="Grupo 1519" transform="translate(-1216.28 -313)">
    <g id="Grupo_1518" data-name="Grupo 1518">
      <g id="Grupo_1517" data-name="Grupo 1517">
        <path id="Trazado_1967" data-name="Trazado 1967" d="M1245.811,313h-24.063a5.468,5.468,0,0,0-5.468,5.469v17.5a5.468,5.468,0,0,0,5.468,5.468h21.427l6.234,6.246a1.1,1.1,0,0,0,1.871-.777V318.469A5.469,5.469,0,0,0,1245.811,313Zm3.281,31.27-4.692-4.7a1.091,1.091,0,0,0-.777-.317h-21.875a3.281,3.281,0,0,1-3.281-3.281v-17.5a3.282,3.282,0,0,1,3.281-3.282h24.063a3.282,3.282,0,0,1,3.281,3.282Z" fill="#fff"/>
        <circle id="Elipse_20" data-name="Elipse 20" cx="2.187" cy="2.187" r="2.187" transform="translate(1231.592 325.031)" fill="#fff"/>
        <circle id="Elipse_21" data-name="Elipse 21" cx="2.187" cy="2.187" r="2.187" transform="translate(1239.248 325.031)" fill="#fff"/>
        <circle id="Elipse_22" data-name="Elipse 22" cx="2.187" cy="2.187" r="2.187" transform="translate(1223.936 325.031)" fill="#fff"/>
      </g>
    </g>
  </g>
</svg>
