<svg xmlns="http://www.w3.org/2000/svg" width="58.001" height="58.001" viewBox="0 0 58.001 58.001">
  <g id="Grupo_1508" data-name="Grupo 1508" transform="translate(-624.747 -1924.999)">
    <path id="Trazado_1957" data-name="Trazado 1957" d="M668.593,1961.989a4.542,4.542,0,0,0-5.143-.891l-7.558,3.58a2.724,2.724,0,0,1-3.086-.534l-9.2-9.2a2.726,2.726,0,0,1-.535-3.086l3.58-7.558a4.54,4.54,0,0,0-.891-5.144l-7.8-7.8a4.536,4.536,0,0,0-6.408,0l-2.083,2.082a16.077,16.077,0,0,0,0,22.748l22.107,22.107a16.077,16.077,0,0,0,22.748,0l2.083-2.082a4.537,4.537,0,0,0,0-6.408Zm-31.923-29.36,7.8,7.806a2.722,2.722,0,0,1,.535,3.086l-.827,1.747-12-12,.64-.641A2.722,2.722,0,0,1,636.67,1932.629ZM652.85,1977,630.743,1954.9a14.26,14.26,0,0,1,.16-20.345l12.456,12.455-1.929,4.072a4.542,4.542,0,0,0,.891,5.143l9.2,9.2a4.54,4.54,0,0,0,5.144.891l4.071-1.928,12.456,12.455a14.262,14.262,0,0,1-20.345.161Zm22.267-2.083-.641.641-12-12,1.748-.828a2.724,2.724,0,0,1,3.086.535l7.8,7.805a2.722,2.722,0,0,1,0,3.845Z" fill="#005695"/>
    <path id="Trazado_1958" data-name="Trazado 1958" d="M681.842,1925h-14.5a1.814,1.814,0,0,0-1.812,1.812v3.625a1.814,1.814,0,0,0,1.812,1.813h2.344l-13.218,13.217a1.812,1.812,0,0,0,0,2.564l3.249,3.249a1.811,1.811,0,0,0,2.563,0l13.218-13.218v2.339a1.811,1.811,0,0,0,1.822,1.812l3.625-.018a1.816,1.816,0,0,0,1.8-1.812v-14.477A.906.906,0,0,0,681.842,1925Zm-.907,15.383-3.624.018v-4.526a.907.907,0,0,0-1.548-.641L661,1950l-3.25-3.249,14.765-14.765a.907.907,0,0,0-.641-1.547h-4.531v-3.625h13.593Z" fill="#005695"/>
  </g>
</svg>
