<svg xmlns="http://www.w3.org/2000/svg" width="56.4" height="63.24" viewBox="0 0 56.4 63.24">
  <g id="Grupo_1513" data-name="Grupo 1513" transform="translate(-832.533 -1926)">
    <g id="Grupo_1512" data-name="Grupo 1512">
      <path id="Trazado_1963" data-name="Trazado 1963" d="M868.193,1973.2c5.33-8.841,12.067-21.269,12.067-27.658a19.54,19.54,0,1,0-39.08,0c0,6.389,6.737,18.817,12.068,27.658-6.324.477-20.715,2.194-20.715,7.886,0,5.6,14.61,8.156,28.2,8.156s28.2-2.555,28.2-8.156c-.013-5.692-14.416-7.409-20.74-7.886Zm-24.315-27.658a16.849,16.849,0,1,1,33.7,0c0,8.118-12.932,28.484-16.856,34.472-3.923-5.988-16.842-26.354-16.842-34.472Zm16.842,41c-16.507,0-25.5-3.614-25.5-5.472,0-1.433,5.937-4.517,19.617-5.305,2.568,4.143,4.517,7.073,4.775,7.421a1.378,1.378,0,0,0,2.233,0c.271-.322,2.207-3.278,4.775-7.421,13.681.788,19.618,3.859,19.618,5.305-.013,1.871-9.009,5.472-25.516,5.472Z" fill="#005695"/>
      <path id="Trazado_1964" data-name="Trazado 1964" d="M869.226,1945.54a8.505,8.505,0,1,0-8.506,8.505A8.5,8.5,0,0,0,869.226,1945.54Zm-14.326,0a5.82,5.82,0,1,1,5.82,5.821A5.822,5.822,0,0,1,854.9,1945.54Z" fill="#005695"/>
    </g>
  </g>
</svg>
