<svg xmlns="http://www.w3.org/2000/svg" width="92.878" height="68.25" viewBox="0 0 92.878 68.25">
  <g id="Grupo_1490" data-name="Grupo 1490" transform="translate(-906.254 -657.88)">
    <g id="Grupo_1489" data-name="Grupo 1489">
      <path id="Trazado_1939" data-name="Trazado 1939" d="M994.867,707.933l-5.6-1.6a.571.571,0,0,1-.411-.545v-1.871a10.13,10.13,0,0,0,1.3-1.064,9.982,9.982,0,0,0,3.055-7.221V693.05l.542-1.083a8.655,8.655,0,0,0,.909-3.851v-6.993a1.357,1.357,0,0,0-1.357-1.357H980.241a8.621,8.621,0,0,0-8.611,8.611v.081a7.2,7.2,0,0,0,.756,3.2l.7,1.39v2.216a10.588,10.588,0,0,0,4.352,8.56v1.96c0,.3,0,.428-1.121.748l-2.734.781-7.91-2.876a1.351,1.351,0,0,0-.37-1.039l-2.527-2.655v-4.458c.267-.22.531-.446.786-.685a15.929,15.929,0,0,0,5.017-11.577v-3.56a15.687,15.687,0,0,0,1.451-6.6V659.361a1.357,1.357,0,0,0-1.357-1.356H948.358A12.977,12.977,0,0,0,935.4,670.968v2.9a15.7,15.7,0,0,0,1.45,6.6v3.063a16.579,16.579,0,0,0,5.8,12.654v4.563l-2.528,2.656a1.357,1.357,0,0,0-.37,1.038l-8.348,3.036a7.1,7.1,0,0,0-1.677.879l-1.311-.656c3.9-1.7,5.138-4.087,5.2-4.206a1.355,1.355,0,0,0,0-1.213c-.979-1.957-1.1-5.543-1.192-8.424-.032-.959-.062-1.865-.119-2.672-.463-6.509-5.411-11.417-11.509-11.417s-11.047,4.908-11.509,11.417c-.058.807-.088,1.713-.119,2.672-.095,2.881-.214,6.467-1.192,8.423a1.357,1.357,0,0,0,0,1.214c.059.119,1.293,2.5,5.2,4.2l-3.641,1.821a5.678,5.678,0,0,0-3.156,5.107v10.024a1.357,1.357,0,1,0,2.714,0V714.623a2.98,2.98,0,0,1,1.655-2.68l4.535-2.267,1.577,1.5a5.706,5.706,0,0,0,7.866,0l1.577-1.5,1.478.74a7.146,7.146,0,0,0-1.091,3.788v10.443a1.357,1.357,0,1,0,2.714,0V714.2a4.461,4.461,0,0,1,2.926-4.179l8.8-3.2,3.664,5.5a2.8,2.8,0,0,0,2.06,1.237c.093.009.187.014.28.014a2.8,2.8,0,0,0,1.982-.823l2.235-2.235v14.134a1.357,1.357,0,0,0,2.714,0V710.514l2.235,2.235a2.8,2.8,0,0,0,1.983.823c.092,0,.186-.005.279-.014a2.8,2.8,0,0,0,2.06-1.237l3.664-5.5,8.8,3.2a4.46,4.46,0,0,1,2.927,4.178v10.444a1.356,1.356,0,1,0,2.713,0V714.2a7.172,7.172,0,0,0-2.006-4.964l.335-.1a7.392,7.392,0,0,0,1.262-.456l3.465,3.465v12.495a1.357,1.357,0,1,0,2.713,0V712.153l3.441-3.441a3.26,3.26,0,0,0,.577.23l5.6,1.6a3.008,3.008,0,0,1,2.173,2.88v11.225a1.357,1.357,0,1,0,2.713,0V713.423A5.733,5.733,0,0,0,994.867,707.933Zm-79.783-2.4a9.75,9.75,0,0,1-4.355-2.8,14.941,14.941,0,0,0,.773-3.249,10.127,10.127,0,0,0,3.582,4.419Zm7.773,3.672a2.994,2.994,0,0,1-4.128,0l-1.261-1.2a2.817,2.817,0,0,0,.329-1.325v-1.446a10.1,10.1,0,0,0,5.991,0v1.445a2.807,2.807,0,0,0,.33,1.325Zm-2.064-6.229a7.356,7.356,0,0,1-7.347-7.347,1.357,1.357,0,0,0-1.357-1.357,1.266,1.266,0,0,0-.223.02l.012-.35c.03-.933.059-1.814.113-2.57a10.07,10.07,0,0,1,2.743-6.326,8.429,8.429,0,0,1,12.118,0,10.07,10.07,0,0,1,2.743,6.326c.054.756.083,1.637.114,2.57l.008.242a12.185,12.185,0,0,0-6.7-4.9,16.992,16.992,0,0,0-5.161-.818,1.361,1.361,0,0,0-.939.414l-2.448,2.539a1.357,1.357,0,0,0,1.953,1.884l2.037-2.112c1.755.085,7.4.742,9.594,5.575A7.33,7.33,0,0,1,920.793,702.979Zm5.709,2.562v-1.619a10.021,10.021,0,0,0,3.582-4.423,14.965,14.965,0,0,0,.773,3.242A9.815,9.815,0,0,1,926.5,705.541Zm13.057-22.013v-3.367a1.356,1.356,0,0,0-.135-.59,13.015,13.015,0,0,1-1.316-5.7v-2.9a10.261,10.261,0,0,1,10.25-10.249h18.954V673.87a13.018,13.018,0,0,1-1.316,5.7,1.367,1.367,0,0,0-.135.59v3.863a13.026,13.026,0,0,1-4.159,9.6,13.331,13.331,0,0,1-1.042.882l-.023.017a13.048,13.048,0,0,1-8.805,2.627A13.44,13.44,0,0,1,939.559,683.528Zm7.64,27.3a.085.085,0,0,1-.076.027.083.083,0,0,1-.068-.041l-4.22-6.33,1.358-1.427,6.4,4.376Zm5.511-5.236-7.348-5.023v-2.533a15.286,15.286,0,0,0,6.295,1.818q.535.035,1.067.034a15.717,15.717,0,0,0,7.334-1.8v2.478Zm5.656,5.222a.085.085,0,0,1-.069.041.079.079,0,0,1-.075-.027l-3.4-3.4,6.4-4.376,1.358,1.427Zm24.777-1.145-3.08-3.079a3.65,3.65,0,0,0,.084-.806v-.573a9.5,9.5,0,0,0,2.687.475c.105,0,.208.005.313.005a10.077,10.077,0,0,0,2.991-.453v.547a3.251,3.251,0,0,0,.1.791Zm5.116-8.766a7.29,7.29,0,0,1-5.343,2.071,7.6,7.6,0,0,1-7.121-7.71V692.73a1.346,1.346,0,0,0-.144-.607l-.838-1.676a4.474,4.474,0,0,1-.469-1.989v-.081a5.9,5.9,0,0,1,5.9-5.9h11.7v5.636a5.932,5.932,0,0,1-.622,2.637l-.685,1.37a1.361,1.361,0,0,0-.143.607v2.9A7.29,7.29,0,0,1,988.259,700.905Z" fill="#999" stroke="#e6e6e6" stroke-miterlimit="10" stroke-width="0.25"/>
    </g>
  </g>
</svg>
