<svg xmlns="http://www.w3.org/2000/svg" width="57.986" height="58.123" viewBox="0 0 57.986 58.123">
  <g id="Grupo_1515" data-name="Grupo 1515" transform="translate(-1018.133 -1923.979)">
    <path id="Trazado_1965" data-name="Trazado 1965" d="M1019.194,1981.041l4.037-15.063a27.879,27.879,0,1,1,11.1,11.007Zm15.894-9.7.953.569a22.635,22.635,0,1,0-7.742-7.673l.584.961-2.253,8.41Z" fill="#005695" stroke="#fff" stroke-miterlimit="10" stroke-width="1.5"/>
    <path id="Trazado_1966" data-name="Trazado 1966" d="M1057.9,1956.41c-1.145-.685-2.635-1.45-3.983-.9-1.035.423-1.695,2.043-2.366,2.87a.991.991,0,0,1-1.283.278,18.037,18.037,0,0,1-9-7.712,1.105,1.105,0,0,1,.139-1.508,6.081,6.081,0,0,0,1.636-2.655,5.807,5.807,0,0,0-.731-3.143c-.543-1.169-1.15-2.836-2.32-3.5a3.179,3.179,0,0,0-3.453.513,7.009,7.009,0,0,0-2.43,5.553,7.879,7.879,0,0,0,.218,1.762,14.634,14.634,0,0,0,1.691,3.9,30.643,30.643,0,0,0,1.765,2.684,27.242,27.242,0,0,0,7.654,7.107,23.137,23.137,0,0,0,4.774,2.27c1.87.618,3.536,1.261,5.556.878a6.73,6.73,0,0,0,5.039-3.748,3.259,3.259,0,0,0,.233-1.912C1060.751,1957.83,1058.967,1957.047,1057.9,1956.41Z" fill="#005695" stroke="#fff" stroke-miterlimit="10" stroke-width="1.5" fill-rule="evenodd"/>
  </g>
</svg>
