<svg xmlns="http://www.w3.org/2000/svg" width="79.17" height="96.964" viewBox="0 0 79.17 96.964">
  <path id="Trazado_1938" data-name="Trazado 1938" d="M785.915,703.35h-3.181V694.2a2.785,2.785,0,0,0-4.031-2.491l-7.7,3.852-8.454-4.227A20.608,20.608,0,0,0,770.8,674.81v-5.969c-1.138-27.442-40.242-27.427-41.371,0v5.969a20.609,20.609,0,0,0,8.256,16.526l-8.454,4.227-7.7-3.852A2.785,2.785,0,0,0,717.5,694.2v9.148h-3.181a2.785,2.785,0,0,0-2.786,2.785v14.917a2.785,2.785,0,0,0,2.786,2.785H717.5v4.673a2.785,2.785,0,0,0,1.54,2.491L742.9,742.935a2.791,2.791,0,0,0,1.246.294h11.933a2.794,2.794,0,0,0,1.246-.294L781.194,731a2.783,2.783,0,0,0,1.54-2.491v-4.673h3.181a2.785,2.785,0,0,0,2.785-2.785V706.135a2.785,2.785,0,0,0-2.785-2.785ZM752.9,653.986a15.136,15.136,0,0,1,12.329,14.855v2.93c-9.825-1.82-12.329-10.789-12.329-14.86ZM735,668.841a15.136,15.136,0,0,1,12.329-14.855v2.925A15.13,15.13,0,0,1,735,671.771Zm.218,8.54a20.722,20.722,0,0,0,14.9-10.086,20.74,20.74,0,0,0,14.9,10.086c-3.21,16.64-26.589,16.629-29.793,0ZM717.1,718.267v-9.346h3.181a4.673,4.673,0,0,1,0,9.346Zm24.263,17.67-18.3-9.148v-3.337a10.248,10.248,0,0,0,0-19.722v-5.021l18.3,9.148Zm11.933,1.721h-6.363V708.921H753.3v28.737Zm2.128-34.308H744.806l-9.346-4.673,8.339-4.169a20.829,20.829,0,0,0,12.634,0l8.338,4.169Zm21.738,23.439-18.3,9.148v-28.08l18.3-9.148v5.021a10.248,10.248,0,0,0,0,19.722Zm5.967-8.522h-3.181a4.673,4.673,0,0,1,0-9.346h3.181Z" transform="translate(-710.53 -647.265)" fill="#999" stroke="#e6e6e6" stroke-miterlimit="10" stroke-width="2"/>
</svg>
